<svg viewBox="0 0 119 70" fill="none" xmlns="http://www.w3.org/2000/svg">
<path d="M3.15625 43V11H23.6563V15.8594H8.95313V24.5469H22.25V29.4062H8.95313V43H3.15625ZM35.3789 43.4844C33.8581 43.4844 32.4883 43.2135 31.2695 42.6719C30.0612 42.1198 29.1029 41.3073 28.3945 40.2344C27.6966 39.1615 27.3477 37.8385 27.3477 36.2656C27.3477 34.9115 27.5977 33.7917 28.0977 32.9062C28.5977 32.0208 29.2799 31.3125 30.1445 30.7812C31.0091 30.25 31.9831 29.849 33.0664 29.5781C34.1602 29.2969 35.2904 29.0937 36.457 28.9687C37.8633 28.8229 39.0039 28.6927 39.8789 28.5781C40.7539 28.4531 41.3893 28.2656 41.7852 28.0156C42.1914 27.7552 42.3945 27.3542 42.3945 26.8125V26.7188C42.3945 25.5417 42.0456 24.6302 41.3477 23.9844C40.6497 23.3385 39.6445 23.0156 38.332 23.0156C36.9466 23.0156 35.8477 23.3177 35.0352 23.9219C34.2331 24.526 33.6914 25.2396 33.4102 26.0625L28.1289 25.3125C28.5456 23.8542 29.2331 22.6354 30.1914 21.6562C31.1497 20.6667 32.3216 19.9271 33.707 19.4375C35.0924 18.9375 36.6237 18.6875 38.3008 18.6875C39.457 18.6875 40.6081 18.8229 41.7539 19.0937C42.8997 19.3646 43.9466 19.8125 44.8945 20.4375C45.8424 21.0521 46.6029 21.8906 47.1758 22.9531C47.7591 24.0156 48.0508 25.3437 48.0508 26.9375V43H42.6133V39.7031H42.4258C42.082 40.3698 41.5977 40.9948 40.9727 41.5781C40.3581 42.151 39.582 42.6146 38.6445 42.9687C37.7174 43.3125 36.6289 43.4844 35.3789 43.4844ZM36.8477 39.3281C37.9831 39.3281 38.9674 39.1042 39.8008 38.6562C40.6341 38.1979 41.2747 37.5937 41.7227 36.8437C42.181 36.0937 42.4102 35.276 42.4102 34.3906V31.5625C42.2331 31.7083 41.931 31.8437 41.5039 31.9687C41.0872 32.0937 40.6185 32.2031 40.0977 32.2969C39.5768 32.3906 39.0612 32.474 38.5508 32.5469C38.0404 32.6198 37.5977 32.6823 37.2227 32.7344C36.3789 32.849 35.6237 33.0365 34.957 33.2969C34.2904 33.5573 33.7643 33.9219 33.3789 34.3906C32.9935 34.849 32.8008 35.4427 32.8008 36.1719C32.8008 37.2135 33.181 38 33.9414 38.5312C34.7018 39.0625 35.6706 39.3281 36.8477 39.3281ZM65.7227 19V23.375H51.9258V19H65.7227ZM55.332 13.25H60.9883V35.7812C60.9883 36.5417 61.1029 37.125 61.332 37.5312C61.5716 37.9271 61.8841 38.1979 62.2695 38.3437C62.6549 38.4896 63.082 38.5625 63.5508 38.5625C63.9049 38.5625 64.2279 38.5365 64.5195 38.4844C64.8216 38.4323 65.0508 38.3854 65.207 38.3437L66.1602 42.7656C65.8581 42.8698 65.4258 42.9844 64.8633 43.1094C64.3112 43.2344 63.6341 43.3073 62.832 43.3281C61.4154 43.3698 60.1393 43.1562 59.0039 42.6875C57.8685 42.2083 56.9674 41.4687 56.3008 40.4687C55.6445 39.4687 55.3216 38.2187 55.332 36.7187V13.25ZM80.8203 43.4688C78.4141 43.4688 76.3359 42.9688 74.5859 41.9688C72.8464 40.9583 71.5078 39.5312 70.5703 37.6875C69.6328 35.8333 69.1641 33.651 69.1641 31.1406C69.1641 28.6719 69.6328 26.5052 70.5703 24.6406C71.5182 22.7656 72.8411 21.3073 74.5391 20.2656C76.237 19.2135 78.2318 18.6875 80.5234 18.6875C82.0026 18.6875 83.3984 18.9271 84.7109 19.4062C86.0339 19.875 87.2005 20.6042 88.2109 21.5937C89.2318 22.5833 90.0339 23.8437 90.6172 25.375C91.2005 26.8958 91.4922 28.7083 91.4922 30.8125V32.5469H71.8203V28.7344H86.0703C86.0599 27.651 85.8255 26.6875 85.3672 25.8437C84.9089 24.9896 84.2682 24.3177 83.4453 23.8281C82.6328 23.3385 81.6849 23.0937 80.6016 23.0937C79.4453 23.0937 78.4297 23.375 77.5547 23.9375C76.6797 24.4896 75.9974 25.2187 75.5078 26.125C75.0286 27.0208 74.7839 28.0052 74.7734 29.0781V32.4062C74.7734 33.8021 75.0286 35 75.5391 36C76.0495 36.9896 76.763 37.75 77.6797 38.2812C78.5964 38.8021 79.6693 39.0625 80.8984 39.0625C81.7214 39.0625 82.4661 38.9479 83.1328 38.7187C83.7995 38.4792 84.3776 38.1302 84.8672 37.6719C85.3568 37.2135 85.7266 36.6458 85.9766 35.9687L91.2578 36.5625C90.9245 37.9583 90.2891 39.1771 89.3516 40.2188C88.4245 41.25 87.237 42.0521 85.7891 42.625C84.3411 43.1875 82.6849 43.4688 80.8203 43.4688ZM106.746 43.4688C104.35 43.4688 102.293 42.9427 100.574 41.8906C98.8659 40.8385 97.5482 39.3854 96.6211 37.5312C95.7044 35.6667 95.2461 33.5208 95.2461 31.0937C95.2461 28.6562 95.7148 26.5052 96.6523 24.6406C97.5898 22.7656 98.9128 21.3073 100.621 20.2656C102.34 19.2135 104.371 18.6875 106.715 18.6875C108.663 18.6875 110.387 19.0469 111.887 19.7656C113.397 20.474 114.6 21.4792 115.496 22.7812C116.392 24.0729 116.902 25.5833 117.027 27.3125H111.621C111.402 26.1562 110.882 25.1927 110.059 24.4219C109.246 23.6406 108.158 23.25 106.793 23.25C105.637 23.25 104.621 23.5625 103.746 24.1875C102.871 24.8021 102.189 25.6875 101.699 26.8438C101.22 28 100.98 29.3854 100.98 31C100.98 32.6354 101.22 34.0417 101.699 35.2187C102.178 36.3854 102.85 37.2865 103.715 37.9219C104.59 38.5469 105.616 38.8594 106.793 38.8594C107.626 38.8594 108.371 38.7031 109.027 38.3906C109.694 38.0677 110.251 37.6042 110.699 37C111.147 36.3958 111.454 35.6615 111.621 34.7969H117.027C116.892 36.4948 116.392 38 115.527 39.3125C114.663 40.6146 113.486 41.6354 111.996 42.375C110.507 43.1042 108.757 43.4688 106.746 43.4688Z"/>
<path d="M97.7891 56V48H99.2383V54.7852H102.762V56H97.7891ZM103.957 56V50H105.371V56H103.957ZM104.668 49.1484C104.444 49.1484 104.251 49.0742 104.09 48.9258C103.928 48.7747 103.848 48.5937 103.848 48.3828C103.848 48.1693 103.928 47.9883 104.09 47.8398C104.251 47.6888 104.444 47.6133 104.668 47.6133C104.895 47.6133 105.087 47.6888 105.246 47.8398C105.408 47.9883 105.488 48.1693 105.488 48.3828C105.488 48.5937 105.408 48.7747 105.246 48.9258C105.087 49.0742 104.895 49.1484 104.668 49.1484ZM108.239 52.4844V56H106.825V50H108.177V51.0195H108.247C108.385 50.6836 108.605 50.4167 108.907 50.2187C109.212 50.0208 109.588 49.9219 110.036 49.9219C110.45 49.9219 110.811 50.0104 111.118 50.1875C111.428 50.3646 111.668 50.6211 111.837 50.957C112.009 51.293 112.093 51.7005 112.091 52.1797V56H110.677V52.3984C110.677 51.9974 110.573 51.6836 110.364 51.457C110.159 51.2305 109.873 51.1172 109.509 51.1172C109.261 51.1172 109.041 51.1719 108.849 51.2812C108.659 51.388 108.509 51.543 108.399 51.7461C108.293 51.9492 108.239 52.1953 108.239 52.4844ZM118.271 51.5859L116.981 51.7266C116.945 51.5964 116.881 51.474 116.79 51.3594C116.701 51.2448 116.582 51.1523 116.431 51.082C116.28 51.0117 116.095 50.9766 115.876 50.9766C115.582 50.9766 115.334 51.0404 115.134 51.168C114.936 51.2956 114.838 51.4609 114.841 51.6641C114.838 51.8385 114.902 51.9805 115.032 52.0898C115.165 52.1992 115.384 52.2891 115.688 52.3594L116.712 52.5781C117.28 52.7005 117.701 52.8945 117.978 53.1602C118.256 53.4258 118.397 53.7734 118.399 54.2031C118.397 54.5807 118.286 54.9141 118.067 55.2031C117.851 55.4896 117.55 55.7135 117.165 55.875C116.78 56.0365 116.337 56.1172 115.837 56.1172C115.103 56.1172 114.511 55.9635 114.063 55.6562C113.616 55.3464 113.349 54.9154 113.263 54.3633L114.642 54.2305C114.704 54.5013 114.837 54.7057 115.04 54.8437C115.243 54.9818 115.507 55.0508 115.833 55.0508C116.169 55.0508 116.438 54.9818 116.642 54.8437C116.847 54.7057 116.95 54.5352 116.95 54.332C116.95 54.1602 116.884 54.0182 116.751 53.9062C116.621 53.7943 116.418 53.7083 116.142 53.6484L115.118 53.4336C114.543 53.3138 114.117 53.112 113.841 52.8281C113.565 52.5417 113.428 52.1797 113.431 51.7422C113.428 51.3724 113.528 51.0521 113.731 50.7812C113.937 50.5078 114.222 50.2969 114.587 50.1484C114.954 49.9974 115.377 49.9219 115.856 49.9219C116.56 49.9219 117.113 50.0716 117.517 50.3711C117.923 50.6706 118.174 51.0755 118.271 51.5859Z"/>
<path d="M29.6456 68V61.4545H32.1001C32.603 61.4545 33.0249 61.5483 33.3658 61.7358C33.7088 61.9233 33.9677 62.1811 34.1424 62.5092C34.3192 62.8352 34.4077 63.206 34.4077 63.6214C34.4077 64.0412 34.3192 64.4141 34.1424 64.7401C33.9656 65.0661 33.7045 65.3228 33.3594 65.5103C33.0142 65.6957 32.5891 65.7884 32.0842 65.7884H30.4574V64.8136H31.9244C32.2184 64.8136 32.4592 64.7624 32.6467 64.6602C32.8342 64.5579 32.9727 64.4173 33.0621 64.2383C33.1538 64.0593 33.1996 63.8537 33.1996 63.6214C33.1996 63.3892 33.1538 63.1847 33.0621 63.0078C32.9727 62.831 32.8331 62.6935 32.6435 62.5955C32.456 62.4954 32.2141 62.4453 31.918 62.4453H30.8313V68H29.6456ZM35.3865 68V63.0909H36.5083V63.9091H36.5594C36.6489 63.6257 36.8023 63.4073 37.0196 63.2539C37.2391 63.0984 37.4894 63.0206 37.7707 63.0206C37.8346 63.0206 37.906 63.0238 37.9848 63.0302C38.0658 63.0344 38.1329 63.0419 38.1862 63.0526V64.1168C38.1372 64.0998 38.0594 64.0849 37.9529 64.0721C37.8485 64.0572 37.7472 64.0497 37.6492 64.0497C37.4383 64.0497 37.2487 64.0955 37.0803 64.1871C36.9142 64.2766 36.7831 64.4013 36.6872 64.5611C36.5914 64.7209 36.5434 64.9052 36.5434 65.114V68H35.3865ZM40.894 68.0959C40.4146 68.0959 39.9991 67.9904 39.6475 67.7795C39.296 67.5685 39.0233 67.2734 38.8294 66.8942C38.6376 66.5149 38.5417 66.0717 38.5417 65.5646C38.5417 65.0575 38.6376 64.6133 38.8294 64.2319C39.0233 63.8505 39.296 63.5543 39.6475 63.3434C39.9991 63.1325 40.4146 63.027 40.894 63.027C41.3734 63.027 41.7889 63.1325 42.1404 63.3434C42.492 63.5543 42.7637 63.8505 42.9554 64.2319C43.1493 64.6133 43.2463 65.0575 43.2463 65.5646C43.2463 66.0717 43.1493 66.5149 42.9554 66.8942C42.7637 67.2734 42.492 67.5685 42.1404 67.7795C41.7889 67.9904 41.3734 68.0959 40.894 68.0959ZM40.9004 67.169C41.1603 67.169 41.3777 67.0977 41.5524 66.9549C41.7271 66.81 41.8571 66.6161 41.9423 66.3732C42.0297 66.1303 42.0733 65.8597 42.0733 65.5614C42.0733 65.261 42.0297 64.9893 41.9423 64.7464C41.8571 64.5014 41.7271 64.3065 41.5524 64.1616C41.3777 64.0167 41.1603 63.9442 40.9004 63.9442C40.6341 63.9442 40.4125 64.0167 40.2356 64.1616C40.0609 64.3065 39.9299 64.5014 39.8425 64.7464C39.7573 64.9893 39.7147 65.261 39.7147 65.5614C39.7147 65.8597 39.7573 66.1303 39.8425 66.3732C39.9299 66.6161 40.0609 66.81 40.2356 66.9549C40.4125 67.0977 40.6341 67.169 40.9004 67.169ZM46.7148 63.0909V63.9858H43.8128V63.0909H46.7148ZM44.5383 68V62.6275C44.5383 62.2972 44.6064 62.0224 44.7428 61.8029C44.8813 61.5835 45.0667 61.4194 45.2989 61.3107C45.5312 61.2021 45.789 61.1477 46.0724 61.1477C46.2726 61.1477 46.4506 61.1637 46.6061 61.1957C46.7616 61.2276 46.8767 61.2564 46.9513 61.282L46.7211 62.1768C46.6721 62.1619 46.6104 62.147 46.5358 62.1321C46.4612 62.1151 46.3781 62.1065 46.2865 62.1065C46.0713 62.1065 45.9189 62.1587 45.8295 62.2631C45.7421 62.3654 45.6984 62.5124 45.6984 62.7042V68H44.5383ZM47.8238 68.0703C47.6299 68.0703 47.4637 68.0021 47.3252 67.8658C47.1867 67.7294 47.1185 67.5632 47.1206 67.3672C47.1185 67.1754 47.1867 67.0114 47.3252 66.875C47.4637 66.7386 47.6299 66.6705 47.8238 66.6705C48.0113 66.6705 48.1743 66.7386 48.3128 66.875C48.4534 67.0114 48.5248 67.1754 48.5269 67.3672C48.5248 67.4972 48.4907 67.6154 48.4246 67.7219C48.3607 67.8285 48.2755 67.9137 48.1689 67.9776C48.0645 68.0394 47.9495 68.0703 47.8238 68.0703ZM52.6434 68H51.3778L53.6821 61.4545H55.1459L57.4534 68H56.1878L54.4395 62.7969H54.3884L52.6434 68ZM52.6849 65.4336H56.1366V66.386H52.6849V65.4336ZM59.4213 65.1236V68H58.2644V63.0909H59.3702V63.9251H59.4277C59.5407 63.6502 59.7207 63.4318 59.9679 63.2699C60.2172 63.108 60.525 63.027 60.8915 63.027C61.2303 63.027 61.5254 63.0994 61.7768 63.2443C62.0304 63.3892 62.2264 63.5991 62.3649 63.8739C62.5055 64.1488 62.5748 64.4822 62.5726 64.8743V68H61.4157V65.0533C61.4157 64.7251 61.3304 64.4684 61.16 64.283C60.9917 64.0977 60.7583 64.005 60.46 64.005C60.2576 64.005 60.0776 64.0497 59.9199 64.1392C59.7644 64.2266 59.6419 64.3533 59.5524 64.5195C59.465 64.6857 59.4213 64.8871 59.4213 65.1236ZM66.2001 63.0909V63.9858H63.378V63.0909H66.2001ZM64.0748 61.9148H65.2317V66.5234C65.2317 66.679 65.2551 66.7983 65.302 66.8814C65.351 66.9624 65.415 67.0178 65.4938 67.0476C65.5726 67.0774 65.66 67.0923 65.7559 67.0923C65.8283 67.0923 65.8944 67.087 65.954 67.0763C66.0158 67.0657 66.0627 67.0561 66.0946 67.0476L66.2896 67.9521C66.2278 67.9734 66.1394 67.9968 66.0243 68.0224C65.9114 68.0479 65.7729 68.0629 65.6088 68.0671C65.3191 68.0756 65.0581 68.032 64.8258 67.9361C64.5936 67.8381 64.4093 67.6868 64.2729 67.4822C64.1387 67.2777 64.0726 67.022 64.0748 66.7152V61.9148ZM69.2563 68.0959C68.7769 68.0959 68.3614 67.9904 68.0099 67.7795C67.6583 67.5685 67.3856 67.2734 67.1917 66.8942C66.9999 66.5149 66.904 66.0717 66.904 65.5646C66.904 65.0575 66.9999 64.6133 67.1917 64.2319C67.3856 63.8505 67.6583 63.5543 68.0099 63.3434C68.3614 63.1325 68.7769 63.027 69.2563 63.027C69.7357 63.027 70.1512 63.1325 70.5028 63.3434C70.8543 63.5543 71.126 63.8505 71.3177 64.2319C71.5116 64.6133 71.6086 65.0575 71.6086 65.5646C71.6086 66.0717 71.5116 66.5149 71.3177 66.8942C71.126 67.2734 70.8543 67.5685 70.5028 67.7795C70.1512 67.9904 69.7357 68.0959 69.2563 68.0959ZM69.2627 67.169C69.5226 67.169 69.74 67.0977 69.9147 66.9549C70.0894 66.81 70.2194 66.6161 70.3046 66.3732C70.392 66.1303 70.4356 65.8597 70.4356 65.5614C70.4356 65.261 70.392 64.9893 70.3046 64.7464C70.2194 64.5014 70.0894 64.3065 69.9147 64.1616C69.74 64.0167 69.5226 63.9442 69.2627 63.9442C68.9964 63.9442 68.7748 64.0167 68.5979 64.1616C68.4232 64.3065 68.2922 64.5014 68.2048 64.7464C68.1196 64.9893 68.077 65.261 68.077 65.5614C68.077 65.8597 68.1196 66.1303 68.2048 66.3732C68.2922 66.6161 68.4232 66.81 68.5979 66.9549C68.7748 67.0977 68.9964 67.169 69.2627 67.169ZM73.7475 65.1236V68H72.5906V63.0909H73.6964V63.9251H73.7539C73.8668 63.6502 74.0469 63.4318 74.294 63.2699C74.5433 63.108 74.8512 63.027 75.2177 63.027C75.5565 63.027 75.8516 63.0994 76.103 63.2443C76.3565 63.3892 76.5526 63.5991 76.6911 63.8739C76.8317 64.1488 76.9009 64.4822 76.8988 64.8743V68H75.7418V65.0533C75.7418 64.7251 75.6566 64.4684 75.4862 64.283C75.3178 64.0977 75.0845 64.005 74.7862 64.005C74.5838 64.005 74.4038 64.0497 74.2461 64.1392C74.0906 64.2266 73.968 64.3533 73.8786 64.5195C73.7912 64.6857 73.7475 64.8871 73.7475 65.1236ZM78.0749 68V63.0909H79.2319V68H78.0749ZM78.6566 62.3942C78.4734 62.3942 78.3157 62.3335 78.1836 62.212C78.0515 62.0884 77.9854 61.9403 77.9854 61.7678C77.9854 61.593 78.0515 61.445 78.1836 61.3235C78.3157 61.1999 78.4734 61.1381 78.6566 61.1381C78.842 61.1381 78.9996 61.1999 79.1296 61.3235C79.2617 61.445 79.3278 61.593 79.3278 61.7678C79.3278 61.9403 79.2617 62.0884 79.1296 62.212C78.9996 62.3335 78.842 62.3942 78.6566 62.3942ZM82.5629 68.0959C82.0835 68.0959 81.6681 67.9904 81.3165 67.7795C80.9649 67.5685 80.6922 67.2734 80.4983 66.8942C80.3066 66.5149 80.2107 66.0717 80.2107 65.5646C80.2107 65.0575 80.3066 64.6133 80.4983 64.2319C80.6922 63.8505 80.9649 63.5543 81.3165 63.3434C81.6681 63.1325 82.0835 63.027 82.5629 63.027C83.0423 63.027 83.4578 63.1325 83.8094 63.3434C84.161 63.5543 84.4326 63.8505 84.6244 64.2319C84.8183 64.6133 84.9152 65.0575 84.9152 65.5646C84.9152 66.0717 84.8183 66.5149 84.6244 66.8942C84.4326 67.2734 84.161 67.5685 83.8094 67.7795C83.4578 67.9904 83.0423 68.0959 82.5629 68.0959ZM82.5693 67.169C82.8293 67.169 83.0466 67.0977 83.2213 66.9549C83.396 66.81 83.526 66.6161 83.6112 66.3732C83.6986 66.1303 83.7423 65.8597 83.7423 65.5614C83.7423 65.261 83.6986 64.9893 83.6112 64.7464C83.526 64.5014 83.396 64.3065 83.2213 64.1616C83.0466 64.0167 82.8293 63.9442 82.5693 63.9442C82.303 63.9442 82.0814 64.0167 81.9046 64.1616C81.7298 64.3065 81.5988 64.5014 81.5115 64.7464C81.4262 64.9893 81.3836 65.261 81.3836 65.5614C81.3836 65.8597 81.4262 66.1303 81.5115 66.3732C81.5988 66.6161 81.7298 66.81 81.9046 66.9549C82.0814 67.0977 82.303 67.169 82.5693 67.169ZM91.7379 63.2539C91.7081 62.9748 91.5824 62.7575 91.3608 62.6019C91.1413 62.4464 90.8558 62.3686 90.5043 62.3686C90.2571 62.3686 90.0451 62.4059 89.8683 62.4805C89.6914 62.555 89.5561 62.6562 89.4624 62.7841C89.3686 62.9119 89.3207 63.0579 89.3185 63.2219C89.3185 63.3583 89.3494 63.4766 89.4112 63.5767C89.4751 63.6768 89.5614 63.7621 89.6701 63.8324C89.7788 63.9006 89.8991 63.9581 90.0312 64.005C90.1634 64.0518 90.2965 64.0913 90.4308 64.1232L91.0444 64.2766C91.2915 64.3342 91.5291 64.4119 91.7571 64.5099C91.9872 64.608 92.1928 64.7315 92.3739 64.8807C92.5572 65.0298 92.7021 65.2099 92.8086 65.4208C92.9151 65.6317 92.9684 65.8789 92.9684 66.1623C92.9684 66.5458 92.8704 66.8835 92.6744 67.1754C92.4783 67.4652 92.195 67.6921 91.8242 67.8562C91.4556 68.0181 91.0092 68.0991 90.4851 68.0991C89.9759 68.0991 89.5337 68.0202 89.1587 67.8626C88.7859 67.7049 88.494 67.4748 88.283 67.1722C88.0742 66.8697 87.9613 66.5011 87.9442 66.0664H89.1108C89.1278 66.2944 89.1982 66.484 89.3217 66.6353C89.4453 66.7866 89.6062 66.8995 89.8043 66.9741C90.0046 67.0487 90.2283 67.0859 90.4755 67.0859C90.7333 67.0859 90.9592 67.0476 91.1531 66.9709C91.3491 66.892 91.5025 66.7834 91.6133 66.6449C91.7241 66.5043 91.7805 66.3402 91.7827 66.1527C91.7805 65.9822 91.7305 65.8416 91.6325 65.7308C91.5344 65.6179 91.397 65.5241 91.2202 65.4496C91.0455 65.3729 90.8409 65.3047 90.6065 65.245L89.8619 65.0533C89.3228 64.9148 88.8967 64.7049 88.5835 64.4237C88.2724 64.1403 88.1168 63.7642 88.1168 63.2955C88.1168 62.9098 88.2212 62.5721 88.43 62.2823C88.641 61.9925 88.9276 61.7678 89.2898 61.608C89.652 61.446 90.0621 61.3651 90.5202 61.3651C90.9847 61.3651 91.3917 61.446 91.7411 61.608C92.0927 61.7678 92.3686 61.9904 92.5689 62.2759C92.7692 62.5593 92.8725 62.8853 92.8789 63.2539H91.7379ZM96.1476 68.0959C95.6555 68.0959 95.2304 67.9936 94.8724 67.7891C94.5166 67.5824 94.2428 67.2905 94.051 66.9134C93.8593 66.5341 93.7634 66.0877 93.7634 65.5742C93.7634 65.0692 93.8593 64.6261 94.051 64.2447C94.2449 63.8612 94.5155 63.5629 94.8628 63.3498C95.2101 63.1346 95.6182 63.027 96.0869 63.027C96.3895 63.027 96.675 63.076 96.9434 63.174C97.214 63.2699 97.4527 63.419 97.6594 63.6214C97.8682 63.8239 98.0322 64.0817 98.1515 64.3949C98.2709 64.706 98.3305 65.0767 98.3305 65.5071V65.8619H94.3067V65.082H97.2215C97.2194 64.8604 97.1714 64.6634 97.0777 64.4908C96.9839 64.3161 96.8529 64.1786 96.6846 64.0785C96.5184 63.9783 96.3245 63.9283 96.1029 63.9283C95.8664 63.9283 95.6586 63.9858 95.4797 64.1009C95.3007 64.2138 95.1611 64.3629 95.061 64.5483C94.963 64.7315 94.9129 64.9329 94.9108 65.1523V65.8331C94.9108 66.1186 94.963 66.3636 95.0674 66.5682C95.1718 66.7706 95.3177 66.9261 95.5052 67.0348C95.6927 67.1413 95.9122 67.1946 96.1636 67.1946C96.3319 67.1946 96.4843 67.1712 96.6207 67.1243C96.757 67.0753 96.8753 67.0039 96.9754 66.9102C97.0756 66.8164 97.1512 66.7003 97.2023 66.5618L98.2826 66.6832C98.2144 66.9687 98.0844 67.218 97.8927 67.4311C97.703 67.642 97.4601 67.8061 97.164 67.9233C96.8678 68.0384 96.529 68.0959 96.1476 68.0959ZM100.722 68.0991C100.411 68.0991 100.131 68.0437 99.8814 67.9329C99.6342 67.82 99.4382 67.6538 99.2933 67.4343C99.1506 67.2148 99.0792 66.9442 99.0792 66.6225C99.0792 66.3455 99.1303 66.1165 99.2326 65.9354C99.3349 65.7543 99.4744 65.6094 99.6513 65.5007C99.8281 65.392 100.027 65.31 100.249 65.2546C100.473 65.1971 100.704 65.1555 100.942 65.13C101.23 65.1001 101.463 65.0735 101.642 65.0501C101.821 65.0245 101.951 64.9862 102.032 64.935C102.115 64.8817 102.157 64.7997 102.157 64.6889V64.6697C102.157 64.429 102.086 64.2425 101.943 64.1104C101.8 63.9783 101.594 63.9123 101.326 63.9123C101.043 63.9123 100.818 63.9741 100.652 64.0977C100.488 64.2212 100.377 64.3672 100.319 64.5355L99.239 64.3821C99.3242 64.0838 99.4648 63.8345 99.6609 63.6342C99.8569 63.4318 100.097 63.2805 100.38 63.1804C100.663 63.0781 100.977 63.027 101.32 63.027C101.556 63.027 101.792 63.0547 102.026 63.1101C102.26 63.1655 102.474 63.2571 102.668 63.3849C102.862 63.5107 103.018 63.6822 103.135 63.8995C103.254 64.1168 103.314 64.3885 103.314 64.7145V68H102.202V67.3256H102.163C102.093 67.462 101.994 67.5898 101.866 67.7092C101.74 67.8263 101.582 67.9212 101.39 67.9936C101.2 68.0639 100.978 68.0991 100.722 68.0991ZM101.022 67.2489C101.255 67.2489 101.456 67.2031 101.626 67.1115C101.797 67.0178 101.928 66.8942 102.02 66.7408C102.113 66.5874 102.16 66.4201 102.16 66.239V65.6605C102.124 65.6903 102.062 65.718 101.975 65.7436C101.89 65.7692 101.794 65.7915 101.687 65.8107C101.581 65.8299 101.475 65.8469 101.371 65.8619C101.266 65.8768 101.176 65.8896 101.099 65.9002C100.926 65.9237 100.772 65.962 100.636 66.0153C100.499 66.0685 100.392 66.1431 100.313 66.239C100.234 66.3327 100.195 66.4542 100.195 66.6033C100.195 66.8164 100.272 66.9773 100.428 67.0859C100.583 67.1946 100.782 67.2489 101.022 67.2489ZM104.528 68V61.4545H105.685V63.9027H105.733C105.793 63.7834 105.877 63.6566 105.986 63.5224C106.094 63.386 106.241 63.2699 106.427 63.174C106.612 63.076 106.849 63.027 107.136 63.027C107.516 63.027 107.858 63.1239 108.162 63.3178C108.469 63.5096 108.712 63.794 108.891 64.1712C109.072 64.5462 109.163 65.0064 109.163 65.5518C109.163 66.0909 109.074 66.549 108.897 66.9261C108.721 67.3033 108.48 67.5909 108.175 67.7891C107.87 67.9872 107.525 68.0863 107.14 68.0863C106.858 68.0863 106.625 68.0394 106.44 67.9457C106.254 67.8519 106.105 67.739 105.992 67.6069C105.881 67.4727 105.795 67.3459 105.733 67.2266H105.666V68H104.528ZM105.663 65.5455C105.663 65.8629 105.708 66.141 105.797 66.3796C105.889 66.6183 106.02 66.8047 106.19 66.9389C106.363 67.071 106.572 67.1371 106.817 67.1371C107.072 67.1371 107.287 67.0689 107.459 66.9325C107.632 66.794 107.762 66.6055 107.849 66.3668C107.939 66.1261 107.983 65.8523 107.983 65.5455C107.983 65.2408 107.94 64.9702 107.852 64.7337C107.765 64.4972 107.635 64.3118 107.462 64.1776C107.29 64.0433 107.075 63.9762 106.817 63.9762C106.57 63.9762 106.36 64.0412 106.187 64.1712C106.015 64.3011 105.884 64.4833 105.794 64.7177C105.707 64.9521 105.663 65.228 105.663 65.5455ZM110.146 68V63.0909H111.268V63.9091H111.319C111.409 63.6257 111.562 63.4073 111.779 63.2539C111.999 63.0984 112.249 63.0206 112.53 63.0206C112.594 63.0206 112.666 63.0238 112.745 63.0302C112.826 63.0344 112.893 63.0419 112.946 63.0526V64.1168C112.897 64.0998 112.819 64.0849 112.713 64.0721C112.608 64.0572 112.507 64.0497 112.409 64.0497C112.198 64.0497 112.008 64.0955 111.84 64.1871C111.674 64.2766 111.543 64.4013 111.447 64.5611C111.351 64.7209 111.303 64.9052 111.303 65.114V68H110.146ZM115.039 68.0991C114.728 68.0991 114.448 68.0437 114.199 67.9329C113.952 67.82 113.756 67.6538 113.611 67.4343C113.468 67.2148 113.397 66.9442 113.397 66.6225C113.397 66.3455 113.448 66.1165 113.55 65.9354C113.652 65.7543 113.792 65.6094 113.969 65.5007C114.146 65.392 114.345 65.31 114.566 65.2546C114.79 65.1971 115.021 65.1555 115.26 65.13C115.547 65.1001 115.781 65.0735 115.96 65.0501C116.139 65.0245 116.269 64.9862 116.35 64.935C116.433 64.8817 116.474 64.7997 116.474 64.6889V64.6697C116.474 64.429 116.403 64.2425 116.26 64.1104C116.117 63.9783 115.912 63.9123 115.643 63.9123C115.36 63.9123 115.135 63.9741 114.969 64.0977C114.805 64.2212 114.694 64.3672 114.637 64.5355L113.556 64.3821C113.642 64.0838 113.782 63.8345 113.978 63.6342C114.174 63.4318 114.414 63.2805 114.697 63.1804C114.981 63.0781 115.294 63.027 115.637 63.027C115.873 63.027 116.109 63.0547 116.343 63.1101C116.578 63.1655 116.792 63.2571 116.986 63.3849C117.18 63.5107 117.335 63.6822 117.452 63.8995C117.572 64.1168 117.631 64.3885 117.631 64.7145V68H116.519V67.3256H116.481C116.41 67.462 116.311 67.5898 116.184 67.7092C116.058 67.8263 115.899 67.9212 115.707 67.9936C115.518 68.0639 115.295 68.0991 115.039 68.0991ZM115.34 67.2489C115.572 67.2489 115.773 67.2031 115.944 67.1115C116.114 67.0178 116.245 66.8942 116.337 66.7408C116.431 66.5874 116.478 66.4201 116.478 66.239V65.6605C116.441 65.6903 116.38 65.718 116.292 65.7436C116.207 65.7692 116.111 65.7915 116.005 65.8107C115.898 65.8299 115.793 65.8469 115.688 65.8619C115.584 65.8768 115.493 65.8896 115.416 65.9002C115.244 65.9237 115.089 65.962 114.953 66.0153C114.817 66.0685 114.709 66.1431 114.63 66.239C114.551 66.3327 114.512 66.4542 114.512 66.6033C114.512 66.8164 114.59 66.9773 114.745 67.0859C114.901 67.1946 115.099 67.2489 115.34 67.2489Z"/>
</svg>
